<svg width="112" height="112" viewBox="0 0 112 112" fill="none" xmlns="http://www.w3.org/2000/svg">
<path fill-rule="evenodd" clip-rule="evenodd" d="M37.0608 46.0221C35.9422 46.1228 35.0977 46.3152 34.1333 46.6891C32.5466 47.3042 31.1198 48.3558 30.0459 49.7014C28.6724 51.4226 27.9382 53.5817 28.0041 55.7062C28.0129 55.9896 28.036 56.3688 28.0555 56.5488C28.3802 59.5501 30.1069 62.1905 32.7641 63.749C33.9915 64.469 35.3281 64.9001 36.8274 65.0596C37.2114 65.1004 38.3593 65.1004 38.7439 65.0596C40.5679 64.866 42.2021 64.2523 43.6133 63.231C43.7392 63.1399 43.8516 63.0653 43.8631 63.0653C43.8745 63.0653 43.9567 63.1191 44.0457 63.1848C44.8292 63.7635 45.773 64.2549 46.6934 64.5634C47.4661 64.8223 48.1078 64.9616 48.9772 65.0592C49.335 65.0993 50.5101 65.0986 50.8936 65.058C52.7211 64.8644 54.4159 64.2229 55.7877 63.2055C55.8916 63.1284 55.989 63.0653 56.0041 63.0653C56.0192 63.0653 56.1166 63.1284 56.2206 63.2055C57.5957 64.2255 59.2858 64.8641 61.1269 65.0596C61.5101 65.1003 62.6356 65.1003 63.0188 65.0596C64.6976 64.8814 66.1951 64.3582 67.525 63.4853C67.6767 63.3858 67.8736 63.2505 67.9626 63.1848C68.0516 63.1191 68.1337 63.0653 68.1452 63.0653C68.1566 63.0653 68.2683 63.139 68.3933 63.2291C69.8251 64.2605 71.4365 64.866 73.2644 65.0597C73.647 65.1002 74.7704 65.0999 75.1685 65.0591C77.2046 64.8505 79.1004 64.0546 80.6098 62.7749C80.891 62.5364 81.4492 61.9892 81.6829 61.723C83.2564 59.9299 84.114 57.4969 83.9878 55.1839C83.9019 53.6092 83.5221 52.2633 82.7958 50.9599C81.9996 49.5312 80.7223 48.2299 79.2806 47.3789C77.2302 46.1686 74.8268 45.7377 72.4536 46.155C70.987 46.4129 69.5093 47.0429 68.3544 47.9026L68.1431 48.0599L67.9396 47.9072C66.601 46.9025 64.8916 46.2476 63.0679 46.0409C62.7146 46.0008 61.4368 46.0011 61.0778 46.0413C59.2724 46.2434 57.5619 46.8975 56.2191 47.8993L56.0041 48.0597L55.7891 47.8993C54.4694 46.9147 52.8125 46.272 51.0287 46.0527C50.6209 46.0025 49.3389 45.9952 48.9403 46.0407C47.2894 46.2291 45.82 46.7474 44.5016 47.6062C44.3441 47.7088 44.136 47.8525 44.0391 47.9255L43.863 48.0583L43.6527 47.9018C42.3257 46.9139 40.6875 46.2774 38.9036 46.0565C38.5433 46.0119 37.409 45.9907 37.0608 46.0221ZM38.2893 48.2034C38.7412 48.2362 38.9482 48.2658 39.402 48.3625C40.1427 48.5204 40.8865 48.7999 41.5448 49.168C41.8688 49.3491 42.2465 49.6031 42.2351 49.6322C42.2289 49.648 42.1472 49.7617 42.0536 49.8849C41.0133 51.2536 40.3752 52.8706 40.1914 54.6035C40.1178 55.2979 40.1503 56.3533 40.2672 57.0655C40.5146 58.5724 41.1796 60.0933 42.1226 61.3086C42.1899 61.3954 42.2451 61.4732 42.2451 61.4816C42.2451 61.5016 41.7642 61.8119 41.5448 61.9335C40.7139 62.3942 39.7787 62.7063 38.8421 62.8354C38.1523 62.9305 37.658 62.9371 36.9257 62.8607C35.1518 62.6759 33.4471 61.8314 32.2413 60.5402C31.1176 59.337 30.443 57.8649 30.2802 56.261C30.243 55.8947 30.2492 55.0721 30.2918 54.7112C30.3595 54.1378 30.5116 53.5089 30.7103 52.9802C30.7588 52.8512 30.9026 52.5393 31.0298 52.287C32.1259 50.1138 34.2274 48.6235 36.7046 48.2626C37.2007 48.1903 37.8006 48.1679 38.2893 48.2034ZM75.1194 48.2411C77.5035 48.5183 79.6211 49.9033 80.7956 51.9537C81.2721 52.7854 81.5508 53.6069 81.6954 54.6062C81.7279 54.8309 81.7386 55.0694 81.7394 55.5863C81.7403 56.1841 81.7334 56.313 81.6842 56.6171C81.4228 58.2334 80.7159 59.6052 79.5566 60.7458C78.4714 61.8137 77.0554 62.5354 75.5253 62.8005C74.6314 62.9553 73.6037 62.9415 72.7238 62.7628C72.0091 62.6177 71.4204 62.4155 70.7748 62.0935C70.4011 61.9071 69.7632 61.5207 69.7632 61.4807C69.7632 61.4709 69.8338 61.3717 69.92 61.2601C70.9673 59.9054 71.6421 58.2017 71.816 56.4733C71.864 55.9961 71.8644 55.0859 71.8168 54.6155C71.6435 52.9018 70.9943 51.2522 69.9554 49.8859C69.8614 49.7621 69.7791 49.6472 69.7725 49.6305C69.7524 49.5793 70.3795 49.1992 70.8811 48.9586C71.8063 48.5147 72.6592 48.2838 73.6698 48.2035C74.0039 48.1769 74.7289 48.1957 75.1194 48.2411ZM50.7953 48.2405C51.8001 48.3533 52.8609 48.6955 53.7068 49.1797C53.9699 49.3303 54.3825 49.5995 54.3825 49.6206C54.3825 49.6319 54.3011 49.7478 54.2017 49.8782C53.1223 51.2933 52.4575 53.0222 52.3174 54.7784C52.2757 55.302 52.2999 56.2976 52.3659 56.7764C52.5924 58.4178 53.2529 60.0029 54.2392 61.2721C54.318 61.3735 54.3825 61.4668 54.3825 61.4795C54.3825 61.4923 54.2581 61.5829 54.1061 61.6809C53.1638 62.2885 52.1998 62.651 51.0244 62.8398C50.6522 62.8996 49.5055 62.9136 49.0632 62.8638C47.8449 62.7266 46.6114 62.2726 45.6416 61.6045L45.4632 61.4817L45.6244 61.2755C46.6551 59.9576 47.3212 58.3019 47.5324 56.5332C47.5745 56.1802 47.5742 54.8922 47.5319 54.5436C47.3166 52.7707 46.6608 51.1487 45.6225 49.8209L45.4647 49.6192L45.6182 49.5124C46.6434 48.7986 47.8896 48.3546 49.2474 48.2194C49.5107 48.1932 50.4933 48.2066 50.7953 48.2405ZM62.9207 48.2392C64.1123 48.3735 65.2122 48.7627 66.2155 49.4052L66.5456 49.6165L66.3868 49.8196C65.4256 51.0487 64.7645 52.5931 64.5308 54.1555C64.4181 54.9089 64.4025 55.9434 64.4928 56.6649C64.6526 57.9407 65.0771 59.1973 65.7158 60.2847C65.9042 60.6055 66.1879 61.0268 66.3871 61.2814L66.5425 61.4802L66.4268 61.5613C65.3944 62.2849 64.1313 62.7425 62.8026 62.8745C62.3768 62.9167 61.3646 62.8924 60.9549 62.83C60.1168 62.7024 59.2818 62.4372 58.5839 62.0766C58.2688 61.9139 57.6257 61.514 57.6257 61.4808C57.6257 61.469 57.7022 61.3589 57.7956 61.236C58.7493 59.9816 59.3837 58.4854 59.6159 56.9428C59.7618 55.973 59.7482 54.8817 59.5782 53.918C59.3172 52.4386 58.6787 50.9949 57.7695 49.8286C57.6904 49.7272 57.6257 49.634 57.6257 49.6214C57.6257 49.6087 57.7335 49.5286 57.8653 49.4433C58.9172 48.7621 60.0355 48.3653 61.2866 48.2294C61.6093 48.1943 62.5743 48.2001 62.9207 48.2392ZM68.5535 51.7744C69.0589 52.5873 69.4019 53.5407 69.5584 54.5675C69.5926 54.7925 69.6022 55.0068 69.6022 55.5504C69.6022 56.0939 69.5926 56.3083 69.5584 56.5332C69.3809 57.6984 68.9881 58.7027 68.3403 59.6476C68.2506 59.7785 68.1652 59.8895 68.1504 59.8943C68.0905 59.9137 67.6501 59.2197 67.4051 58.7195C66.9518 57.7946 66.7165 56.8521 66.6766 55.8021C66.6171 54.2366 67.0829 52.671 67.9874 51.3963L68.1455 51.1735L68.2714 51.3483C68.3406 51.4445 68.4676 51.6362 68.5535 51.7744ZM44.0308 51.4093C44.7069 52.3687 45.1552 53.547 45.2962 54.7353C45.3365 55.0751 45.3365 56.0256 45.2962 56.3654C45.153 57.5718 44.6672 58.8246 43.9764 59.7691L43.8611 59.9268L43.7517 59.7761C43.1889 59.0014 42.7652 58.0531 42.5544 57.0965C42.4281 56.523 42.406 56.2934 42.406 55.5504C42.406 54.8073 42.4281 54.5777 42.5544 54.0042C42.7641 53.0524 43.1852 52.1074 43.7373 51.3494C43.7973 51.267 43.8546 51.1996 43.8647 51.1996C43.8747 51.1996 43.9495 51.294 44.0308 51.4093ZM56.2519 51.5292C56.492 51.8817 56.8531 52.5713 56.9955 52.9495C57.2045 53.5041 57.3621 54.1333 57.4338 54.6994C57.4758 55.0304 57.4756 56.0728 57.4335 56.4013C57.3246 57.2514 57.0974 58.0015 56.7174 58.766C56.4828 59.2378 56.0642 59.9011 56.001 59.9011C55.9739 59.9011 55.7813 59.6273 55.5895 59.316C54.1186 56.9285 54.1841 53.8662 55.7562 51.5291C55.8781 51.3479 55.989 51.1996 56.0026 51.1996C56.0163 51.1996 56.1284 51.3479 56.2519 51.5292Z" fill="black"/>
</svg>
