<svg width="112" height="112" viewBox="0 0 112 112" fill="none" xmlns="http://www.w3.org/2000/svg">
<path fill-rule="evenodd" clip-rule="evenodd" d="M55.4916 35.0644C53.7526 35.4441 51.087 37.333 47.2873 40.8781C45.0887 42.9295 40.5164 47.6932 39.9047 48.5697C39.6333 48.9587 39.2839 49.7091 39.1694 50.1493C39.0852 50.4726 39.0751 50.6329 39.0804 51.5521C39.0913 53.4228 39.1602 53.8765 39.4521 53.9995C39.6504 54.0831 39.7623 54.0124 40.6161 53.2647C43.2288 50.9765 46.5386 48.3845 48.8511 46.8156C51.7857 44.8246 54.0636 43.7061 55.5665 43.5182C57.1116 43.3249 59.55 44.3887 63.1294 46.8175C65.5621 48.4682 69.1367 51.2783 71.685 53.543C72.1787 53.9819 72.3521 54.0739 72.5376 53.9957C72.8196 53.8768 72.89 53.3955 72.8982 51.529C72.9022 50.6304 72.8916 50.4721 72.8061 50.1453C72.5986 49.3533 72.1437 48.569 71.4414 47.7928C69.6191 45.7786 66.3533 42.4289 64.7836 40.9639C60.8429 37.2861 58.1782 35.3975 56.4509 35.058C56.0491 34.9791 55.8769 34.9802 55.4916 35.0644ZM56.5804 36.1024C58.1358 36.538 60.9467 38.6568 64.623 42.1647C66.9425 44.378 70.8025 48.4371 71.3059 49.1923C71.8135 49.9538 71.9459 50.4322 71.9449 51.5018C71.9445 51.9227 71.9284 52.2924 71.9091 52.3233C71.885 52.362 71.6263 52.1684 71.0825 51.7047C64.981 46.5006 59.873 43.2114 56.9522 42.6056C55.5961 42.3244 54.1351 42.6677 51.9568 43.7794C49.1873 45.1928 45.0174 48.182 40.8961 51.708C39.9616 52.5076 40.0484 52.5447 40.0402 51.3427C40.0343 50.4652 40.0771 50.2137 40.3158 49.7257C40.5083 49.3322 40.7429 49.0697 41.5017 48.3992C44.1745 46.0376 47.2624 43.8456 50.5056 42.0075C51.5257 41.4294 53.2386 40.5561 54.0727 40.1891C55.2704 39.662 55.503 39.5243 55.6953 39.2285C55.9017 38.9111 55.9486 38.5798 55.9768 37.2413L56.0029 36.0075H56.1221C56.1877 36.0075 56.3939 36.0502 56.5804 36.1024ZM55.3 47.1181C53.1303 47.7337 49.7186 50.3945 44.8244 55.2884C43.1604 56.9522 40.3266 59.9901 39.9492 60.5145C39.7026 60.8572 39.4372 61.3587 39.2851 61.7691C39.03 62.4574 38.9976 62.9265 39.0854 64.6557C39.1384 65.6996 39.1996 65.9495 39.4236 66.0361C39.6094 66.1079 39.7369 66.0491 40.1146 65.7175C45.8867 60.6491 51.1975 56.9434 54.1985 55.8904C55.551 55.4158 56.4027 55.4081 57.6991 55.8587C60.757 56.9216 65.9921 60.5649 71.8659 65.7178C72.2436 66.0492 72.3712 66.1079 72.5569 66.0361C72.7898 65.946 72.8439 65.7062 72.9014 64.5102C72.9854 62.7667 72.9225 62.2313 72.5347 61.3889C72.2539 60.7788 71.9754 60.4007 71.0844 59.4195C70.039 58.2685 68.1122 56.2411 67.1337 55.2626C62.5179 50.6466 59.1319 47.9613 56.9875 47.2157C56.4289 47.0215 55.7741 46.9836 55.3 47.1181ZM56.3789 48.0717C57.5959 48.3275 59.5548 49.6401 62.2681 52.0178C64.4752 53.9518 67.2343 56.6823 69.8152 59.4867C71.2499 61.0457 71.5267 61.4169 71.8026 62.1522C71.9109 62.4411 71.9196 62.5244 71.9359 63.4412C71.9455 63.9804 71.9406 64.4214 71.9249 64.4214C71.9092 64.4214 71.5862 64.1554 71.2071 63.8302C66.9192 60.152 62.6734 57.1184 59.8658 55.7268C57.2051 54.4079 55.9295 54.2348 53.9612 54.9255C50.9807 55.9713 46.3786 59.0624 41.0435 63.6019C40.5137 64.0526 40.0701 64.4214 40.0576 64.4214C40.0451 64.4214 40.0349 63.984 40.0349 63.4494C40.0349 62.5346 40.0416 62.457 40.1483 62.1335C40.3721 61.4549 40.5848 61.2019 41.8686 60.0869C44.3618 57.9216 47.428 55.7689 50.5056 54.0231C51.4175 53.5059 53.1904 52.5973 53.8825 52.2927C55.362 51.6415 55.6464 51.4531 55.806 51.0191C55.928 50.6872 55.9902 49.9683 55.9902 48.8883C55.9903 48.4 56.0013 48.0004 56.0148 48.0004C56.0283 48.0004 56.1922 48.0325 56.3789 48.0717ZM70.9009 69.3737C70.3218 69.5326 70.1102 69.9084 70.4066 70.2518C70.6011 70.4772 70.9012 70.5697 71.3717 70.5493C71.7195 70.5343 71.7663 70.5196 72.0779 70.3279C72.4915 70.0736 72.6104 70.069 72.968 70.2937C73.307 70.5065 73.4744 70.5563 73.8523 70.5563C74.3946 70.5563 74.7756 70.3379 74.8301 69.9959C74.8508 69.8659 74.8318 69.8074 74.7279 69.6818C74.3664 69.2446 73.5582 69.2114 72.9768 69.6099C72.6584 69.828 72.4769 69.8267 72.1219 69.6037C71.6888 69.3318 71.3121 69.2608 70.9009 69.3737ZM30.4707 71.3459C29.3649 71.3883 28.8704 71.5091 28.31 71.8739C27.1044 72.6587 26.673 74.0647 27.2597 75.2972C27.3636 75.5155 27.5151 75.7176 27.7718 75.9807C28.2247 76.4449 28.7636 76.7382 29.41 76.8722C30.3198 77.0609 33.216 77.0351 33.9836 76.8313C34.8849 76.5921 35.4875 76.1278 35.9109 75.3462C35.9843 75.2107 36.0448 75.0831 36.0452 75.0627C36.0457 75.0423 35.5743 75.032 34.9977 75.0397L33.9492 75.0536L33.8762 75.1689C33.7374 75.3879 33.3497 75.7778 33.1554 75.8937C32.7511 76.1348 32.4645 76.1903 31.6266 76.1899C30.744 76.1895 30.5286 76.1516 30.0981 75.9215C28.6669 75.1561 28.7108 73.0778 30.1732 72.3726C30.3493 72.2877 30.6033 72.1972 30.7375 72.1714C31.0629 72.109 32.1732 72.1116 32.4743 72.1755C33.0017 72.2875 33.4421 72.5863 33.8776 73.1278L33.9981 73.2777H35.0221C35.5852 73.2777 36.046 73.2609 36.046 73.2404C36.046 73.1759 35.7356 72.6753 35.5869 72.5C35.2009 72.0451 34.6513 71.7023 33.982 71.4991C33.6162 71.388 33.4876 71.3739 32.6918 71.3572C32.2057 71.3471 31.6753 71.3339 31.5133 71.328C31.3512 71.3221 30.8821 71.3302 30.4707 71.3459ZM61.2406 71.4337C60.5257 71.5565 59.9154 71.8668 59.4295 72.3543C58.9041 72.8816 58.6646 73.4376 58.6646 74.1297C58.6646 74.8465 58.8939 75.3996 59.4125 75.9341C59.7854 76.3183 60.1591 76.5515 60.7248 76.7527L61.1349 76.8987H63.2427H65.3504L65.7606 76.7527C66.3262 76.5515 66.7 76.3183 67.0729 75.9341C67.5972 75.3938 67.8218 74.8451 67.8196 74.1098C67.8163 72.9999 67.0575 72.0333 65.8595 71.6131C65.6529 71.5406 65.3416 71.4604 65.1678 71.4348C64.8007 71.3809 61.5539 71.3799 61.2406 71.4337ZM37.2548 71.5096C37.2382 71.5264 37.2246 72.7193 37.2246 74.1602C37.2246 76.7032 37.2272 76.7815 37.3122 76.8279C37.3645 76.8563 37.7762 76.8756 38.3321 76.8756H39.2643V74.2325C39.2643 72.2384 39.2509 71.5759 39.2099 71.5341C39.1511 71.4743 37.3122 71.4512 37.2548 71.5096ZM40.4519 71.5341C40.4166 71.57 40.3975 71.7566 40.3975 72.0646V72.5397H41.4538C42.506 72.5397 42.5111 72.5402 42.7515 72.6621C43.001 72.7886 43.2248 73.0507 43.329 73.3384C43.3658 73.4398 43.3833 73.9887 43.3857 75.1102L43.3891 76.7351L43.496 76.8063C43.5851 76.8658 43.7554 76.8755 44.5272 76.865L45.4516 76.8525L45.4742 74.7405C45.4936 72.9306 45.5066 72.6223 45.5649 72.5848C45.6039 72.5597 46.2449 72.5408 47.072 72.5404L48.5112 72.5397V72.0985C48.5112 71.8558 48.4901 71.6171 48.4643 71.568C48.4184 71.4809 48.3261 71.4788 44.4618 71.4788C41.4458 71.4788 40.4934 71.4919 40.4519 71.5341ZM50.2563 71.5664C50.1566 71.6135 50.0097 71.722 49.93 71.8076C49.6401 72.1185 49.6444 72.0775 49.6444 74.5459V76.7856L49.7606 76.8306C49.8246 76.8553 50.2835 76.8756 50.7805 76.8756H51.6841V75.9069V74.9383H52.6956C53.252 74.9383 53.8283 74.9606 53.9762 74.9879C54.3738 75.0613 54.8408 75.3075 55.1194 75.5908C55.3888 75.8646 55.6518 76.3547 55.6981 76.6688L55.7286 76.8756H56.7496H57.7707L57.7428 76.6362C57.6782 76.0807 57.1816 75.4483 56.5422 75.1069C56.3596 75.0095 56.2208 74.9189 56.2338 74.9057C56.2468 74.8925 56.3923 74.8337 56.5571 74.7751C57.3093 74.5076 57.7957 73.8341 57.7496 73.1236C57.7008 72.3695 57.0691 71.7087 56.226 71.5298C56.0654 71.4957 55.0656 71.4791 53.2117 71.4798C50.606 71.4808 50.4266 71.486 50.2563 71.5664ZM68.8936 71.5096C68.8769 71.5264 68.8633 72.5502 68.8633 73.7845V76.0288L68.988 76.2789C69.1396 76.5832 69.3809 76.7648 69.7194 76.8291C69.8675 76.8573 71.1258 76.8756 72.9163 76.8756C75.5153 76.8756 75.881 76.867 75.9697 76.8038C76.061 76.7387 76.0704 76.6934 76.0704 76.3194V75.9069H73.5875C71.4136 75.9069 71.092 75.898 71.0038 75.8351C70.9085 75.7672 70.9031 75.731 70.9031 75.1663V74.5693H73.0108H75.1186V74.108V73.6467H73.0108H70.9031L70.9038 73.1278C70.9042 72.8424 70.9194 72.5861 70.9378 72.5582C71.0354 72.4093 71.1722 72.4013 73.6197 72.4013H76.0704V71.9954C76.0704 71.7412 76.0501 71.5688 76.016 71.5341C75.9747 71.492 75.1192 71.4788 72.4427 71.4788C70.5073 71.4788 68.9102 71.4926 68.8936 71.5096ZM77.2603 71.5083C77.2159 71.5273 77.2036 72.1016 77.2036 74.1591V76.7856L77.3199 76.8306C77.3839 76.8553 77.8428 76.8756 78.3398 76.8756H79.2434V74.7148C79.2434 72.6531 79.2473 72.5504 79.3292 72.4749C79.4067 72.4035 79.5369 72.3973 80.6777 72.4101L81.9404 72.4244L82.1808 72.5599C82.4805 72.7289 82.7087 72.9824 82.8635 73.3183L82.9829 73.5775L82.9952 75.1459C83.0073 76.6721 83.0101 76.7163 83.1023 76.7949C83.1855 76.8658 83.3061 76.8756 84.0985 76.8756H85L84.9992 75.4572C84.9983 73.85 84.9679 73.6053 84.6995 73.0505C84.5845 72.8126 84.4418 72.6153 84.2324 72.4047C83.8705 72.0407 83.5488 71.8399 83.0174 71.6465L82.6203 71.5019L79.9686 71.4929C78.5102 71.488 77.2915 71.4949 77.2603 71.5083ZM64.2347 72.2217C64.7933 72.3467 65.3593 72.7968 65.6102 73.3155C65.7515 73.6076 65.7584 73.6462 65.7584 74.1532C65.7584 74.6578 65.751 74.6999 65.6129 74.9872C65.3437 75.5468 64.7284 76.017 64.1089 76.1366C63.7844 76.1992 62.6741 76.1968 62.3724 76.1327C61.73 75.9964 61.1768 75.5694 60.8974 74.9941C60.733 74.6556 60.727 74.6263 60.727 74.1566C60.727 73.7051 60.7375 73.6473 60.8714 73.3597C60.9508 73.1891 61.1097 72.9473 61.2245 72.8224C61.428 72.601 61.8994 72.3123 62.1775 72.2388C62.5914 72.1294 63.7783 72.1195 64.2347 72.2217ZM55.2325 72.4648C55.4089 72.5416 55.6045 72.7465 55.6701 72.9232C55.7758 73.2081 55.6814 73.5918 55.4542 73.801C55.2414 73.9968 55.0953 74.0116 53.3499 74.0137L51.6841 74.0158V73.3654V72.715L51.8382 72.5582L51.9923 72.4013H53.5395C54.7524 72.4013 55.1181 72.415 55.2325 72.4648Z" fill="#6E6E6E"/>
</svg>
