<svg width="112" height="112" viewBox="0 0 112 112" fill="none" xmlns="http://www.w3.org/2000/svg">
<path fill-rule="evenodd" clip-rule="evenodd" d="M27.0294 38.8122C27.0456 39.2588 27.3063 47.3534 27.6088 56.8003L28.1587 73.9764L30.966 73.9882L33.7731 74L33.7432 70.4661C33.7268 68.5224 33.6997 65.1673 33.6831 63.0102L33.653 59.0882L36.007 59.0764L38.3611 59.0645V56.7546V54.4446L36.0144 54.4327L33.6677 54.4209V48.5663V42.7118H36.7584H39.8489L39.8194 42.0599C39.8031 41.7014 39.7898 40.6414 39.7897 39.7042L39.7895 38.0003H33.3947H27L27.0294 38.8122ZM42.0273 38.9495C42.0432 39.4715 42.1998 47.3809 42.3753 56.5258C42.5508 65.6708 42.7059 73.3435 42.72 73.5762L42.7455 73.9993H45.6361H48.5267L48.5568 62.7811C48.5733 56.6111 48.6003 48.5112 48.6168 44.7816L48.6467 38.0003H45.3225H41.9984L42.0273 38.9495ZM51.7404 39.3153C51.7611 40.3256 52.2144 73.3945 52.2144 73.8903V73.9993H54.8826H57.5507L57.5806 72.73C57.5971 72.0318 57.6106 69.3387 57.6106 66.7452C57.6106 64.1517 57.6242 61.3781 57.6407 60.5815L57.6707 59.1331H60.8789H64.087L64.1357 59.4419C64.3965 61.0963 64.5732 64.3808 64.685 69.6538C64.7093 70.7985 64.7294 72.2446 64.7296 72.8672L64.7301 73.9993H67.3326H69.935L69.9731 73.0959C70.033 71.672 70.0189 63.89 69.9535 62.2665C69.6132 53.8223 68.7985 48.3563 67.1551 43.4933C66.55 41.7027 65.6858 39.737 64.9011 38.3663L64.7046 38.0232L58.2091 38.0116L51.7136 38L51.7404 39.3153ZM69.2194 40.2646V42.5288H71.5094H73.7994L73.7984 42.8375C73.7978 43.0074 73.7677 49.6611 73.7314 57.6237C73.6951 65.5862 73.665 72.5281 73.6644 73.0502L73.6634 73.9993H76.4749H79.2863V73.782C79.2863 73.4809 80.4103 43.6794 80.4457 43.0434L80.4743 42.5288H82.7372H85L84.9998 40.7791C84.9997 39.8168 84.9864 38.798 84.9702 38.5149L84.9408 38.0003H77.0801H69.2194V40.2646ZM60.8294 42.7003C60.9075 42.845 61.1007 43.2515 61.2587 43.6037C62.1711 45.6366 62.8573 48.198 63.4155 51.6543C63.6046 52.825 63.8232 54.3951 63.8232 54.5827V54.6962H60.6289C58.8346 54.6962 57.4238 54.6785 57.4099 54.6558C57.3964 54.6337 57.3985 51.8754 57.4147 48.5264L57.4443 42.4373H59.0659H60.6875L60.8294 42.7003Z" fill="black"/>
</svg>
