<svg width="112" height="112" viewBox="0 0 112 112" fill="none" xmlns="http://www.w3.org/2000/svg">
<ellipse cx="55.9789" cy="55.9728" rx="28.0128" ry="10.4746" fill="white"/>
<path fill-rule="evenodd" clip-rule="evenodd" d="M54.3271 45.1351C45.2397 45.33 36.9618 47.0879 31.9318 49.891C30.9884 50.4166 30.2364 50.9244 29.5101 51.5262C29.1644 51.8125 28.5093 52.4676 28.2656 52.7707C27.3737 53.8797 26.9574 54.991 27.0034 56.1397C27.0263 56.7082 27.1402 57.2008 27.3734 57.7396C28.2688 59.8081 30.7621 61.7402 34.5421 63.2948C41.4766 66.1466 51.8218 67.4071 61.9036 66.6285C69.472 66.044 76.2297 64.2984 80.4262 61.8438C82.6674 60.5329 84.1085 59.0886 84.713 57.5474C84.822 57.2695 84.9441 56.7916 84.9802 56.5016C85.0203 56.1794 84.9965 55.4821 84.9351 55.1842C84.717 54.1251 84.1536 53.168 83.1698 52.185C82.1643 51.1804 80.9337 50.3389 79.2133 49.4795C73.6527 46.702 64.9962 45.0893 55.8378 45.1246C55.1528 45.1272 54.473 45.132 54.3271 45.1351ZM57.7982 46.088C63.442 46.2294 68.513 46.9098 72.9168 48.1165C77.7775 49.4483 81.2672 51.308 82.846 53.4077C83.3375 54.0612 83.6094 54.6513 83.749 55.3673C83.8107 55.6838 83.8058 56.3246 83.7391 56.6584C83.4264 58.2232 82.1574 59.6934 79.9818 61.0113C74.2257 64.4981 63.2232 66.3864 52.0207 65.8101C43.2931 65.3612 35.6724 63.4542 31.4936 60.6736C29.9137 59.6224 28.884 58.4792 28.4377 57.281C27.872 55.7623 28.3326 54.1677 29.7564 52.7156C33.3485 49.0519 42.6421 46.4588 53.4276 46.1108C54.8777 46.064 56.5027 46.0555 57.7982 46.088ZM54.108 46.9178C52.8418 46.9508 51.5849 47.0124 50.3254 47.103C49.6494 47.1517 49.474 47.1666 48.6994 47.241C40.157 48.0618 33.2952 50.2953 30.5243 53.157C29.8217 53.8827 29.4139 54.5891 29.242 55.3789C29.1817 55.656 29.1817 56.3236 29.242 56.6008C29.5261 57.9056 30.5431 59.1141 32.305 60.2404C35.7874 62.4666 41.8979 64.1208 49.0454 64.7723C54.2186 65.2438 59.8045 65.1744 64.8328 64.5764C71.7675 63.7515 77.4107 61.9967 80.4555 59.7182C80.8237 59.4428 81.0269 59.2682 81.3556 58.945C82.1282 58.1853 82.5782 57.4398 82.7569 56.6238C82.7903 56.471 82.7998 56.3312 82.7998 55.9898C82.7998 55.6484 82.7903 55.5086 82.7569 55.3558C82.5782 54.5398 82.1282 53.7943 81.3556 53.0346C80.5713 52.2634 79.629 51.6219 78.2792 50.9403C76.5326 50.0583 74.5013 49.333 71.9942 48.696C68.1214 47.712 63.7118 47.1312 58.6631 46.9401C57.8206 46.9082 55.0042 46.8944 54.108 46.9178ZM49.7719 48.855C50.9639 48.9187 51.9332 49.0436 54.3271 49.4423C57.0954 49.9032 58.1894 50.0161 59.8971 50.0168C61.3646 50.0173 62.3507 49.9248 63.5873 49.6704C63.803 49.6261 64.0126 49.5839 64.0531 49.5766C64.2507 49.5413 64.4294 49.6544 64.4748 49.8436C64.5603 50.2 64.2651 50.6565 63.7142 51.0197C63.4482 51.195 62.8787 51.4757 62.5956 51.571C61.3577 51.9876 59.7885 51.9928 57.9231 51.5864C57.3892 51.47 56.8154 51.3231 55.8378 51.0522C54.9977 50.8195 53.7274 50.4913 53.6666 50.4913C53.6478 50.4913 53.6351 50.5341 53.6306 50.6123L53.6236 50.7333L53.2281 51.0331C52.2009 51.8115 51.547 52.4188 51.0074 53.0959C50.7285 53.4459 50.3608 54.004 50.39 54.0332C50.4081 54.0513 52.139 53.9639 52.3263 53.9355L52.4127 53.9224V53.6629C52.4127 53.1861 52.5443 52.8495 52.851 52.5412C53.2931 52.097 53.8891 52.0352 54.2505 52.3963C54.4619 52.6074 54.5295 52.8879 54.4544 53.242C54.3567 53.7032 53.9962 54.1175 53.5375 54.2959C53.4505 54.3297 53.3678 54.3689 53.3538 54.3829C53.3112 54.4254 53.3793 54.499 53.6255 54.6764C53.8887 54.8661 53.9226 54.9207 53.8551 55.046C53.8022 55.1441 53.6893 55.2175 53.5913 55.2175C53.439 55.2175 53.0937 54.9999 52.8111 54.7258L52.6214 54.5417L52.3153 54.5572C51.6903 54.5887 49.9999 54.7597 49.886 54.8029C49.8236 54.8267 49.8201 54.8319 49.4246 55.4826C47.8954 57.9992 46.9387 59.3202 45.9513 60.2783C45.6068 60.6126 45.1723 60.9703 44.8592 61.1772C43.668 61.9648 42.142 62.1887 40.9614 61.7491C40.1641 61.4522 39.5479 60.8485 39.2598 60.082C39.0192 59.4419 39.0123 58.559 39.2425 57.8688C39.3117 57.6611 39.4954 57.2807 39.6172 57.0924C40.049 56.4253 40.8107 55.8526 41.5455 55.6425C41.727 55.5906 41.7938 55.5825 41.9732 55.5903C42.2143 55.6008 42.2964 55.6357 42.4095 55.7756C42.4591 55.837 42.4818 55.8937 42.4897 55.9759C42.5056 56.1409 42.4493 56.2196 42.2256 56.3456C41.9138 56.5211 41.6392 56.7205 41.417 56.9327C40.9415 57.3868 40.7297 57.7984 40.7031 58.3207C40.6875 58.6262 40.7269 58.8393 40.8437 59.0815C41.1126 59.639 41.5904 59.9294 42.2876 59.9591C43.0666 59.9923 43.9054 59.6652 44.7204 59.0105C45.2558 58.5804 46.1946 57.5968 46.8731 56.7551C47.3251 56.1945 48.0998 55.1397 48.0998 55.085C48.0998 55.0554 48.0711 55.0526 47.9095 55.0665C47.3712 55.1127 46.8754 55.285 46.4574 55.5711C46.2452 55.7163 46.1774 55.7478 46.077 55.7476C45.8393 55.7474 45.7023 55.5096 45.8142 55.2915C45.8689 55.1847 45.9241 55.1341 46.1278 55.0039C46.6709 54.6565 47.211 54.484 48.3856 54.2828C48.7085 54.2275 48.8578 54.1921 48.8897 54.1633C48.9146 54.1408 49.1072 53.8889 49.3178 53.6036C50.1037 52.5387 50.4645 52.1336 51.1903 51.5014C51.7689 50.9974 52.0768 50.773 52.5014 50.546C52.6112 50.4872 52.7412 50.4136 52.7903 50.3824C52.8699 50.3317 52.8758 50.3218 52.8448 50.2907C52.786 50.232 50.9372 49.8952 50.164 49.8024C48.3819 49.5885 46.9993 49.7367 45.8955 50.2599C45.494 50.4503 45.2456 50.6233 44.9515 50.9176C44.5496 51.3196 44.35 51.7119 44.3239 52.1512C44.2974 52.5954 44.4888 52.936 44.8443 53.0777C44.9556 53.122 45.0166 53.1294 45.2629 53.1288C45.5239 53.128 45.5719 53.1211 45.7703 53.0549C46.015 52.9733 46.3017 52.82 46.5844 52.6194C46.8285 52.4461 47.2205 52.0537 47.3963 51.8066C47.4724 51.6996 47.5589 51.5888 47.5884 51.5603C47.6995 51.4533 47.8491 51.472 47.9478 51.6054C47.9861 51.6572 47.9955 51.7019 47.9936 51.8244C47.9916 51.9511 47.9745 52.0162 47.8967 52.1928C47.5024 53.0883 46.8872 53.8462 46.1854 54.301C45.9203 54.4728 45.7414 54.5598 45.4629 54.6525C45.0878 54.7772 44.8665 54.8095 44.4787 54.7961C44.0836 54.7823 43.9056 54.7385 43.5916 54.5774C43.4227 54.4908 43.3412 54.4288 43.1619 54.2503C42.9671 54.0564 42.9265 54.0013 42.8214 53.7881C42.6422 53.4245 42.6037 53.2531 42.6011 52.8083C42.5988 52.4061 42.6221 52.2427 42.7288 51.9134C43.2451 50.3201 45.2098 49.1124 47.65 48.8884C48.2828 48.8303 49.0764 48.8178 49.7719 48.855ZM53.4852 52.7463C53.2713 52.8465 53.0821 53.1646 53.0635 53.4553C53.0485 53.6893 53.0647 53.742 53.152 53.742C53.3349 53.742 53.6751 53.4705 53.7965 53.2277C53.8883 53.044 53.8941 52.8544 53.8104 52.7758C53.7344 52.7045 53.6005 52.6923 53.4852 52.7463ZM73.0187 52.7646C73.0686 52.7838 73.0644 52.8336 73.0047 52.9323C72.9769 52.9782 72.4355 53.8198 71.8015 54.8025C69.607 58.2042 68.7366 59.5851 68.4008 60.1976C68.2893 60.4008 68.2245 60.6279 68.2475 60.7343C68.3003 60.9781 68.5641 61.0844 68.8821 60.9901C69.3125 60.8624 69.7879 60.486 70.8664 59.4193C71.3864 58.905 71.6336 58.6757 71.6681 58.6757C71.7445 58.6757 72.1326 59.0329 72.1326 59.1033C72.1326 59.2546 70.8384 60.63 70.1837 61.1745C69.5636 61.6901 68.9958 62.0103 68.432 62.1622C68.1561 62.2365 67.6803 62.2345 67.4852 62.1581C67.1323 62.0201 66.8941 61.7448 66.7934 61.3585C66.7743 61.2851 66.7586 61.2006 66.7586 61.1707C66.7586 61.1409 66.7478 61.0962 66.7346 61.0716C66.7024 61.0113 66.6574 61.0365 66.4357 61.2391C65.7597 61.8569 64.9186 62.1972 64.2782 62.112C63.5569 62.016 63.0286 61.5337 62.8231 60.7833C62.7646 60.5695 62.7607 60.5268 62.7641 60.1281C62.7661 59.8935 62.7706 59.6551 62.7739 59.5984C62.7822 59.4594 62.743 59.4553 62.5578 59.5755C62.1947 59.8112 61.657 60.0177 61.3011 60.058C60.4563 60.1536 59.8515 59.6458 59.7533 58.7582C59.7436 58.6705 59.7239 58.5949 59.7097 58.5901C59.6788 58.5799 59.3168 59.1314 58.0799 61.0734C57.8012 61.5108 57.5467 61.8973 57.5142 61.9321L57.4552 61.9955H56.7C56.0443 61.9955 55.9401 61.9908 55.9086 61.9593C55.8887 61.9394 55.8724 61.9169 55.8724 61.9094C55.8724 61.8724 56.0753 61.5383 56.5767 60.7499C57.8623 58.7282 58.514 57.6245 58.6036 57.317C58.6799 57.0549 58.6237 56.8722 58.449 56.8146C58.126 56.7082 57.4216 57.1789 56.6521 58.0154C56.3191 58.3774 55.5616 59.3174 55.2817 59.7159C54.8743 60.296 54.469 60.7825 54.1524 61.0712C53.1121 62.0203 51.943 62.3342 50.94 61.9339C50.4393 61.7341 50.0203 61.3179 49.809 60.8108C49.7696 60.716 49.7373 60.6269 49.7373 60.6127C49.7373 60.5653 49.6673 60.4509 49.6382 60.4509C49.6224 60.4509 49.5111 60.5502 49.3909 60.6716C49.002 61.0643 48.604 61.3731 48.4867 61.3731C48.4077 61.3731 48.3308 61.2974 48.1702 61.0618C48.0388 60.869 48.0207 60.8194 48.0555 60.7475C48.07 60.7175 48.2058 60.584 48.3574 60.4509C49.0138 59.8741 49.1821 59.6467 49.482 58.9317C50.0614 57.5503 50.8186 56.6604 51.8566 56.1407C52.5623 55.7874 53.3662 55.5934 53.6416 55.71C53.754 55.7575 53.7872 55.8082 53.8817 56.0777C53.9481 56.2668 53.9628 56.3344 53.9442 56.364C53.9307 56.3853 53.7846 56.4608 53.6195 56.5318C52.9826 56.8056 52.5433 57.0932 52.1234 57.5114C51.5154 58.1169 51.1868 58.8142 51.1876 59.4975C51.188 59.8812 51.2806 60.1465 51.4923 60.3703C51.7665 60.6601 52.1695 60.7445 52.6203 60.6067C53.3623 60.3797 54.0423 59.6489 54.3387 58.7598C54.4929 58.2974 54.522 58.1014 54.5226 57.5229C54.5231 56.9905 54.5156 56.9246 54.4038 56.4848C54.3803 56.3923 54.3721 56.3084 54.3825 56.2671C54.4069 56.1699 54.5268 56.0675 54.792 55.9175C55.1885 55.693 55.3333 55.7189 55.5205 56.0476C55.6864 56.3389 55.8097 56.7771 55.8382 57.1771C55.8564 57.4321 55.8665 57.4768 55.9059 57.4768C55.9239 57.4768 56.162 57.2356 56.4351 56.9408C57.1189 56.2026 57.4697 55.9025 57.917 55.6732C58.6007 55.3226 59.2134 55.3212 59.5856 55.6691C59.7878 55.8582 59.9073 56.1879 59.9082 56.5585C59.9089 56.8692 59.9418 56.8797 60.1289 56.6296C60.4907 56.1461 61.046 55.7537 61.5444 55.6295C61.7036 55.5898 61.7891 55.5827 62.0181 55.5903C62.2831 55.5992 62.3067 55.604 62.4764 55.6846C62.9782 55.9228 63.2276 56.4352 63.1016 56.9693C63.0095 57.36 62.7704 57.6703 62.4329 57.837C62.261 57.922 62.2411 57.9264 62.0317 57.9264C61.8375 57.9264 61.7943 57.9185 61.6673 57.8599C61.352 57.7143 61.1866 57.4059 61.2179 57.0216C61.2359 56.8001 61.1254 56.8438 60.9123 57.1425C60.6994 57.4409 60.5986 57.7263 60.5946 58.0417C60.5903 58.3847 60.6954 58.6331 60.91 58.7871C61.0577 58.8932 61.1866 58.9333 61.3847 58.9349C61.9315 58.9394 62.5413 58.5726 63.6775 57.5559C64.5873 56.7418 64.9154 56.4796 65.3568 56.2137C66.3988 55.586 67.5011 55.5623 68.1403 56.1539C68.3393 56.3381 68.4373 56.4897 68.5019 56.7134C68.5845 57 68.5771 57.0065 69.1398 56.1512C70.3237 54.3515 70.9835 53.3419 71.1405 53.0894C71.2336 52.9397 71.3312 52.8022 71.3573 52.7839C71.3964 52.7565 71.5437 52.7506 72.1935 52.7506C72.6273 52.7506 72.9986 52.7569 73.0187 52.7646ZM66.7305 56.8423C66.0601 57.0268 65.0867 58.0468 64.6963 58.9739C64.5744 59.2634 64.5074 59.5088 64.4726 59.7928C64.3695 60.6357 64.8699 60.9989 65.6388 60.6393C66.0144 60.4636 66.5717 60.0017 66.8537 59.6324C67.1135 59.2922 67.5318 58.622 67.576 58.4751C67.5883 58.4345 67.5775 58.4173 67.5213 58.3883C67.4131 58.3324 67.41 58.2646 67.5052 58.0349C67.6135 57.7735 67.6584 57.592 67.6571 57.4201C67.6552 57.1568 67.5556 56.9911 67.3319 56.8794C67.2084 56.8177 67.1662 56.8085 67.0144 56.8103C66.9182 56.8114 66.7904 56.8259 66.7305 56.8423Z" fill="#003478"/>
</svg>
