<svg width="112" height="112" viewBox="0 0 112 112" fill="none" xmlns="http://www.w3.org/2000/svg">
<path fill-rule="evenodd" clip-rule="evenodd" d="M53.1117 38.0076C50.7779 38.0875 47.9629 38.2874 46.6947 38.4632C43.6713 38.8823 42.0018 39.8283 41.1043 41.6309C40.447 42.951 40.2753 44.4093 40.3276 48.2278C40.3584 50.4793 40.4141 51.4144 40.6534 53.7026C40.8795 55.8642 41.2279 57.8137 41.5879 58.9324C41.8984 59.8974 42.397 60.8576 42.8358 61.3357C44.102 62.7153 45.9454 63.356 49.4301 63.6276C53.0161 63.9071 58.9515 63.9198 62.4573 63.6556C65.9729 63.3906 67.7356 62.8495 69.0391 61.6351C70.4347 60.3349 71.135 57.8475 71.6309 52.4301C71.6927 51.7545 71.7725 50.636 71.8082 49.9446C71.9065 48.0412 71.7981 44.7468 71.5967 43.5165C71.2718 41.5324 70.3334 40.1791 68.7126 39.3573C66.9219 38.4493 63.3661 38.0457 56.8216 38.0076C55.0771 37.9975 53.4076 37.9975 53.1117 38.0076ZM61.2395 39.1406C65.058 39.4039 66.7639 39.7316 67.8857 40.4171C68.8099 40.9819 69.3796 41.7199 69.727 42.8022C70.0884 43.9276 70.1896 45.1466 70.1851 48.3161C70.1821 50.4107 70.1615 51.0263 70.0542 52.2301C69.4677 58.8112 68.66 60.8237 66.2007 61.8318C64.634 62.474 61.6746 62.7388 56.057 62.7396C52.0636 62.7401 49.9807 62.638 47.9854 62.3438C44.3568 61.809 43.1309 60.3216 42.4341 55.609C41.7881 51.24 41.7219 45.3536 42.2932 43.0859C42.7643 41.2158 44.0536 40.1034 46.2582 39.6648C47.6532 39.3873 49.755 39.1809 52.4037 39.0613C54.091 38.9851 59.7169 39.0356 61.2395 39.1406ZM47.806 40.2027C47.4267 40.2261 47.0003 40.2629 46.8584 40.2843L46.6005 40.3233L46.6296 40.6485C46.6455 40.8274 46.7349 42.1951 46.828 43.6879C47.3812 52.5575 48.0292 61.6086 48.1172 61.6965C48.1756 61.7547 49.5851 61.8615 50.4713 61.8748L51.2577 61.8866L51.4778 61.0295C52.0285 58.8842 52.4399 57.615 52.7774 57.02C52.9992 56.6288 53.3844 56.2921 53.783 56.1409C54.462 55.8833 56.2547 55.7845 57.4163 55.9406C58.8817 56.1377 59.2948 56.5558 59.9319 58.4869C60.0718 58.9111 60.3287 59.811 60.5026 60.4867C60.6766 61.1624 60.8336 61.7639 60.8515 61.8235C60.8823 61.9255 60.93 61.9297 61.6566 61.8943C62.9223 61.8327 63.8974 61.7365 63.9651 61.6666C64.0264 61.6033 64.3708 57.3106 64.6947 52.573C64.9238 49.2222 65.4592 40.8055 65.4592 40.5541C65.4592 40.3368 65.4474 40.3198 65.2751 40.2895C65.0747 40.2543 63.3476 40.1423 63.3269 40.1631C63.32 40.1702 63.0432 41.4096 62.712 42.9175C62.0111 46.1082 61.1412 49.6492 60.7814 50.7765C60.6429 51.2104 60.4122 51.8018 60.2688 52.0909C59.8064 53.0226 59.0598 53.6319 58.0677 53.8872C57.4835 54.0375 56.147 54.107 55.1815 54.0374C53.7979 53.9376 53.1035 53.6732 52.4281 52.9891C51.745 52.2972 51.3546 51.2455 50.5381 47.8975C50.0374 45.8445 49.7858 44.7477 49.0744 41.5166C48.7864 40.2089 48.775 40.1737 48.6371 40.167C48.5592 40.1633 48.1852 40.1794 47.806 40.2027ZM43.6528 67.9497C41.3359 68.162 39.911 68.9839 39.396 70.4049C39.2273 70.8706 39.2125 71.9635 39.3687 72.4287C39.943 74.1395 41.699 75 44.6157 75C46.6762 75 48.118 74.5777 49.034 73.7061C50.0191 72.7686 50.2652 71.3 49.6495 70.0325C49.4331 69.5868 48.8782 69.0071 48.3938 68.7205C47.9624 68.4651 47.0985 68.1746 46.4282 68.0595C45.9073 67.97 44.1777 67.9016 43.6528 67.9497ZM27.0006 68.593V69.0426L27.5186 69.1096C27.8034 69.1465 28.0829 69.2017 28.1396 69.2323C28.341 69.341 28.3675 69.6432 28.3493 71.6195L28.3317 73.5244L28.1797 73.6562C28.0718 73.7498 27.9242 73.7989 27.6699 73.8256C26.9536 73.9009 27.0006 73.8642 27.0006 74.3474V74.7714H29.6344H32.2682V74.3467C32.2682 73.8663 32.2931 73.8902 31.7301 73.8307C31.2845 73.7835 31.1074 73.7092 31.0294 73.5364C30.9942 73.4585 30.9654 73.1131 30.9654 72.7689V72.1431H32.9762H34.9869V72.8313C34.9869 73.4749 34.9784 73.5282 34.8555 73.6521C34.755 73.7535 34.6322 73.7941 34.3316 73.8252C33.6465 73.8962 33.6842 73.8658 33.6842 74.3491V74.7714H36.3179H38.9517V74.3491C38.9517 73.8658 38.9893 73.8962 38.3042 73.8252C38.0036 73.7941 37.8808 73.7535 37.7803 73.6521L37.649 73.5196V71.486V69.4523L37.78 69.3202C37.8594 69.2401 38.0099 69.1744 38.1623 69.1535C38.3005 69.1345 38.5346 69.1022 38.6826 69.0818L38.9517 69.0446V68.5939V68.1433H36.3179H33.6842V68.593V69.0426L34.2021 69.1096C34.4869 69.1465 34.7646 69.2007 34.8192 69.2302C34.9772 69.3155 35.0435 69.6045 35.0435 70.2088V70.7717H32.9997H30.956L30.9748 70.0809C30.9969 69.2747 31.0375 69.2083 31.5457 69.1463C31.7094 69.1263 31.939 69.0959 32.0558 69.0787L32.2682 69.0475V68.5954V68.1433H29.6344H27.0006V68.593ZM50.2797 68.5928V69.0468L50.577 69.0838C51.3318 69.1775 51.3575 69.1845 51.4702 69.329C51.5772 69.4663 51.5824 69.5659 51.5824 71.4962V73.5196L51.451 73.6521C51.3505 73.7535 51.2277 73.7941 50.9271 73.8252C50.2421 73.8962 50.2797 73.8658 50.2797 74.3491V74.7714H52.3754H54.471V74.3467C54.471 73.8663 54.496 73.8902 53.933 73.8307C53.4788 73.7826 53.3037 73.7063 53.2289 73.5238C53.1869 73.4214 53.1714 72.8058 53.1816 71.6443L53.1966 69.9172L54.9199 72.2048C55.8677 73.463 56.7171 74.5552 56.8075 74.6319L56.9719 74.7714H58.7517H60.5315V72.1177V69.4639L60.6619 69.311C60.776 69.1771 60.8571 69.1506 61.3133 69.0978L61.8342 69.0375V68.5904V68.1433H59.7386H57.6429V68.5939V69.0446L57.8978 69.0796C58.0379 69.0989 58.2682 69.1306 58.4096 69.1501C58.5509 69.1695 58.7229 69.2315 58.7919 69.2878C58.916 69.3891 58.9174 69.4094 58.9337 71.2329L58.9502 73.0757L57.2428 70.7952C56.3037 69.5409 55.4612 68.4376 55.3704 68.3433L55.2053 68.1719L52.7425 68.1553L50.2797 68.1388V68.5928ZM62.344 68.5963V69.0493L62.6697 69.0841C63.1191 69.1319 63.3926 69.2124 63.4842 69.3236C63.5868 69.4482 63.6297 73.0393 63.533 73.4019C63.4556 73.6916 63.295 73.7712 62.6697 73.8296L62.2307 73.8706V74.321V74.7714L65.8132 74.7711C69.6291 74.7708 70.0764 74.7453 70.8442 74.4843C71.7145 74.1886 72.4211 73.6438 72.7555 73.0109C73.2113 72.1481 73.2247 70.8291 72.7865 69.9567C72.5575 69.5008 71.9702 68.9436 71.4561 68.6944C70.4228 68.1937 69.8985 68.1433 65.7163 68.1433H62.344V68.5963ZM74.8048 68.5914V69.0428L75.0738 69.0766C75.2218 69.0951 75.5059 69.1279 75.7051 69.1494C76.085 69.1903 76.2774 69.3095 76.2774 69.5036C76.2774 69.6328 74.0002 73.3691 73.7848 73.5933C73.6455 73.7383 73.5652 73.7651 73.1112 73.8176L72.5958 73.8773V74.3244V74.7714H74.6915H76.7872V74.3226V73.8737L76.3571 73.8409C75.6771 73.789 75.5743 73.6201 75.8942 73.0805L76.0773 72.7716L78.1173 72.7726L80.1573 72.7736L80.3414 73.0576C80.6831 73.5848 80.5527 73.7617 79.7697 73.8333L79.336 73.873V74.3222V74.7714H82.168H85V74.3252V73.8791L84.4573 73.8197C83.9481 73.764 83.9033 73.7484 83.7292 73.566C83.6272 73.459 82.8457 72.2916 81.9926 70.9717C81.1396 69.6518 80.3604 68.4819 80.2613 68.3719L80.0811 68.1719L77.443 68.156L74.8048 68.14V68.5914ZM45.5652 69.3104C46.2024 69.4815 46.5988 69.8442 46.8073 70.4473C46.887 70.6778 46.9091 70.9135 46.9073 71.5145C46.9053 72.1773 46.8871 72.3316 46.7774 72.6101C46.4526 73.4353 45.6968 73.7912 44.4037 73.7278C43.3262 73.675 42.8625 73.433 42.52 72.7446C42.3295 72.3616 42.321 72.3177 42.3019 71.6166C42.2853 71.0044 42.3009 70.8247 42.3988 70.4995C42.5871 69.874 43.0472 69.445 43.695 69.291C44.0412 69.2087 45.2325 69.221 45.5652 69.3104ZM69.2878 69.6113C69.4153 69.6801 69.5994 69.8281 69.6969 69.9401C70.2679 70.5962 70.1937 72.6251 69.5795 73.1464C69.2082 73.4616 69.109 73.4792 67.569 73.5019L66.1389 73.5231V71.4868V69.4505L67.5974 69.4683C68.9717 69.4851 69.0692 69.4933 69.2878 69.6113ZM78.6969 70.5578L79.3322 71.5431L78.108 71.5585C77.4347 71.567 76.8718 71.5618 76.857 71.5469C76.8283 71.5179 77.986 69.5756 78.0333 69.5736C78.0489 69.573 78.3475 70.0158 78.6969 70.5578Z" fill="black"/>
</svg>
