<svg width="112" height="112" viewBox="0 0 112 112" fill="none" xmlns="http://www.w3.org/2000/svg">
<path fill-rule="evenodd" clip-rule="evenodd" d="M37.0565 51.0761C37.0556 57.6987 37.0631 57.5381 36.7261 58.1225C36.1564 59.1103 34.614 59.5692 33.2667 59.1518C32.6006 58.9455 32.0422 58.4401 31.7592 57.7875C31.6352 57.5014 31.6251 57.3885 31.6052 56.0686L31.584 54.6559H29.292H27L27.0002 56.2057C27.0005 57.9623 27.061 58.4729 27.3704 59.3279C27.6311 60.0483 27.9922 60.6249 28.5069 61.1426C29.1851 61.8245 29.8207 62.2064 30.8369 62.5423C31.857 62.8795 32.7325 62.9951 34.2654 62.9948C35.4795 62.9947 36.1448 62.9325 36.9254 62.746C38.1377 62.4565 39.0957 61.9845 39.8604 61.3C40.9687 60.3079 41.5898 59.0517 41.764 57.4497C41.8019 57.1014 41.8245 54.6714 41.8245 50.9468V45H39.4409H37.0574L37.0565 51.0761ZM48.1646 49.9443C46.2279 50.1561 44.6357 51.2352 43.6368 53.0129C43.2654 53.674 43.0242 54.3282 42.8309 55.1989C42.6389 56.0634 42.6154 57.3283 42.7757 58.1649C43.2767 60.7799 45.0716 62.5663 47.7504 63.1157C48.5098 63.2715 50.1461 63.2856 50.9494 63.1433C52.4278 62.8814 53.7936 62.2363 54.7018 61.3709C55.3956 60.7097 55.8096 60.0122 55.8777 59.3899L55.9095 59.0998H53.7531H51.5968L51.423 59.3381C51.1863 59.6628 50.8741 59.9114 50.4893 60.0817C50.2006 60.2095 50.097 60.2244 49.4983 60.2244C48.9732 60.2244 48.7625 60.2009 48.5164 60.1148C47.706 59.8313 47.2185 59.0639 47.1338 57.9388L47.0974 57.4539H51.5243H55.9513L55.9504 57.1658C55.9499 57.0074 55.9235 56.5823 55.8919 56.2211C55.6188 53.1109 54.4455 51.2518 52.2228 50.4078C51.1237 49.9905 49.4699 49.8016 48.1646 49.9443ZM62.3753 49.9349C59.6469 50.2354 57.7069 52.1062 56.9823 55.1354C56.871 55.6005 56.8546 55.8257 56.8576 56.8504C56.8608 57.9897 56.8671 58.0519 57.0413 58.6733C57.8928 61.7107 60.4971 63.422 64.003 63.2479C65.154 63.1908 66.0706 62.9826 67.0273 62.561C68.5824 61.8758 69.7367 60.7033 69.9926 59.5494C70.0364 59.3517 70.059 59.1697 70.0427 59.1449C70.0265 59.12 69.0477 59.0998 67.8676 59.0998H65.7221L65.654 59.2198C65.5108 59.4724 65.037 59.8863 64.7016 60.0518C64.3637 60.2186 64.3273 60.2244 63.6252 60.2244C62.9224 60.2243 62.8857 60.2184 62.5094 60.0448C61.7458 59.6924 61.3889 59.0626 61.2667 57.8516L61.2266 57.4539H65.6524H70.0782V56.9971C70.0782 55.8824 69.8171 54.4185 69.4553 53.5037C68.6521 51.4732 67.207 50.3871 64.8194 50.0195C64.1679 49.9192 62.9123 49.8757 62.3753 49.9349ZM78.4124 50.1284C77.5084 50.2832 76.9189 50.5656 76.2634 51.1578C76.0042 51.392 75.75 51.5835 75.6986 51.5835C75.5418 51.5835 75.4847 51.3942 75.4847 50.8739V50.3766H73.2756H71.0665V58.6883V67H73.304H75.5417L75.5568 64.6272L75.572 62.2544L75.7362 62.2366C75.8673 62.2224 75.9644 62.2759 76.2168 62.5012C76.8473 63.0639 77.8346 63.3726 79.1473 63.4174C80.7511 63.4722 81.8547 63.1227 82.872 62.2379C83.8722 61.3679 84.5653 60.0678 84.8814 58.4688C85.049 57.6207 85.0367 55.5663 84.8589 54.7352C84.5698 53.3841 84.0849 52.4369 83.2525 51.5972C82.5089 50.847 81.406 50.2925 80.2847 50.105C79.8283 50.0287 78.9287 50.04 78.4124 50.1284ZM50.5349 52.8419C51.2187 53.17 51.6746 53.8632 51.7187 54.6416L51.7365 54.9576L49.531 54.972C48.3179 54.9799 47.3042 54.9663 47.2782 54.9418C47.2065 54.874 47.3265 54.109 47.4629 53.7648C47.6201 53.3685 47.9714 52.9971 48.3581 52.8186C48.957 52.542 49.9319 52.5525 50.5349 52.8419ZM64.5704 52.7844C65.3102 53.0849 65.8924 53.9707 65.8924 54.7957V54.985H63.6456H61.3988L61.434 54.5545C61.5457 53.1876 62.4487 52.489 63.9158 52.6345C64.1237 52.6551 64.4182 52.7225 64.5704 52.7844ZM78.9872 53.4456C79.3967 53.5936 79.8791 53.9971 80.0957 54.3725C80.3552 54.8225 80.4869 55.4146 80.5247 56.3017C80.6133 58.3808 80.1007 59.8197 79.0997 60.3016C78.7271 60.481 78.1184 60.5534 77.583 60.4819C76.091 60.2828 75.5154 59.446 75.4435 57.3716C75.3963 56.0068 75.5303 55.2023 75.9309 54.4471C76.232 53.8794 76.7326 53.4764 77.316 53.332C77.6509 53.2491 78.6272 53.3155 78.9872 53.4456ZM82.8376 63.8109C82.709 63.866 82.5185 63.9915 82.4144 64.0898C82.105 64.3818 82.0286 64.5669 82.0267 65.029C82.0251 65.3972 82.045 65.4751 82.2009 65.7133C82.3101 65.8802 82.4848 66.0451 82.6614 66.1482C82.9179 66.2978 82.9933 66.3142 83.4251 66.3142C83.8646 66.3142 83.925 66.3004 84.1548 66.1481C84.2925 66.0567 84.484 65.8762 84.5803 65.7469C84.7278 65.5489 84.7588 65.4491 84.7767 65.115C84.8004 64.6705 84.7286 64.45 84.4633 64.153C84.103 63.7498 83.3499 63.5913 82.8376 63.8109ZM83.7802 63.9003C84.1249 63.9969 84.4971 64.3398 84.611 64.6656C84.7828 65.1567 84.5305 65.7824 84.0547 66.0456C83.5129 66.3452 82.9458 66.2728 82.51 65.8483C81.8398 65.1954 82.0962 64.2092 83.0166 63.8998C83.3126 63.8003 83.4235 63.8003 83.7802 63.9003ZM82.9261 64.9975C82.9261 65.3929 82.9494 65.6833 82.9812 65.6833C83.0115 65.6833 83.0441 65.5537 83.0538 65.3953C83.0714 65.1075 83.0716 65.1072 83.2814 65.0907C83.4864 65.0745 83.4946 65.0814 83.6225 65.3787C83.7142 65.5922 83.7853 65.6833 83.8598 65.6833C83.9584 65.6833 83.9556 65.661 83.8228 65.3775C83.6805 65.0739 83.6803 65.0711 83.7944 64.9797C83.9895 64.8237 84.0059 64.6125 83.8353 64.4516C83.7066 64.3302 83.6369 64.3117 83.3065 64.3117H82.9261V64.9975ZM83.5908 64.4749C83.705 64.5159 83.7399 64.5669 83.7399 64.6925C83.7399 64.8937 83.5883 64.9831 83.287 64.9595C83.0892 64.9441 83.0698 64.9274 83.0528 64.7591C83.0425 64.6582 83.0483 64.5409 83.0655 64.4985C83.1017 64.4094 83.3742 64.3972 83.5908 64.4749Z" fill="black"/>
</svg>
