<svg width="112" height="112" viewBox="0 0 112 112" fill="none" xmlns="http://www.w3.org/2000/svg">
<g clip-path="url(#clip0_2929_25165)">
<path d="M34.3417 69.3327V77.2371H32.5609V71.6759L30.1709 75.6593L27.7808 71.6759V77.2371H26V69.3327H28.3119L30.1709 72.5507L31.9985 69.3327H34.3417ZM35.8413 77.2371H37.6065V69.3327H35.8413V77.2371ZM38.3876 69.3327V70.9886H40.5277V77.2371H42.3085V70.9886H44.433V69.3327H38.3876ZM45.1047 77.1433C45.8389 77.2683 46.62 77.362 47.4479 77.362C49.5724 77.362 50.5409 76.6278 50.5409 75.0501C50.5409 73.5505 49.4786 73.0662 48.1665 72.4726C47.2917 72.0821 46.7137 71.8634 46.7137 71.426C46.7137 70.9886 46.9324 70.8636 47.9946 70.8636C48.9007 70.8636 49.713 70.9886 50.1504 71.0198V69.3796C49.6973 69.3171 48.9631 69.2234 47.9478 69.2234C45.9639 69.2234 44.9641 69.8014 44.9641 71.4416C44.9641 72.7694 45.8858 73.2849 47.1355 73.8473C48.4164 74.4409 48.8069 74.519 48.8069 75.097C48.8069 75.5968 48.3383 75.7218 47.4323 75.7218C46.3388 75.7218 45.4484 75.5656 45.0891 75.5031V77.1433H45.1047ZM51.6031 74.5658C51.6031 76.4872 52.8528 77.3464 54.743 77.3464C56.6488 77.3464 57.9141 76.4716 57.9141 74.5658V69.3327H56.1333V74.5033C56.1333 75.4094 55.5865 75.7218 54.743 75.7218C53.8994 75.7218 53.3683 75.4094 53.3683 74.5033V69.3327H51.5875V74.5658H51.6031ZM59.4293 77.2371H63.0066C64.7562 77.2371 65.5841 76.4091 65.5841 75.0345C65.5841 73.7067 64.8499 73.3161 64.1313 73.1131C64.7405 72.8787 65.3966 72.5351 65.3966 71.3791C65.3966 69.942 64.5062 69.3484 62.8816 69.3484H59.4293V77.2371V77.2371ZM61.2102 72.5351V70.8324H62.6317C63.2878 70.8324 63.6002 71.0042 63.6002 71.6447C63.6002 72.1602 63.3346 72.5351 62.6317 72.5351H61.2102ZM61.2102 75.753V73.941H62.8348C63.4908 73.941 63.7564 74.1909 63.7564 74.8158C63.7564 75.5187 63.4752 75.7687 62.7567 75.7687H61.2102V75.753ZM66.6619 77.2527H68.4428V69.3484H66.6619V77.2527ZM69.7237 77.1433C70.4579 77.2683 71.239 77.362 72.0669 77.362C74.1914 77.362 75.1599 76.6278 75.1599 75.0501C75.1599 73.5505 74.0976 73.0662 72.7855 72.4726C71.9107 72.0821 71.3327 71.8634 71.3327 71.426C71.3327 70.9886 71.5514 70.8636 72.6136 70.8636C73.5197 70.8636 74.332 70.9886 74.7693 71.0198V69.3796C74.3163 69.3171 73.5821 69.2234 72.5668 69.2234C70.5829 69.2234 69.5831 69.8014 69.5831 71.4416C69.5831 72.7694 70.5048 73.2849 71.7545 73.8473C73.0354 74.4409 73.4259 74.519 73.4259 75.097C73.4259 75.5968 72.9573 75.7218 72.0513 75.7218C70.9578 75.7218 70.0674 75.5656 69.7081 75.5031V77.1433H69.7237ZM80.7054 69.3327V72.457H77.8936V69.3327H76.1128V77.2371H77.878V74.0816H80.6898V77.2371H82.455V69.3327H80.7054ZM83.9077 77.2527H85.6886V69.3484H83.9077V77.2527ZM40.2934 79.9708L38.4657 83.1887L36.6068 79.9708H34.3105V87.8751H36.0913V82.3296L38.4813 86.313L40.8557 82.3296V87.8907H42.6366V79.9864H40.2934V79.9708ZM43.855 83.9229C43.855 86.7504 44.9329 87.9844 47.2604 87.9844C49.588 87.9844 50.6659 86.7504 50.6659 83.9229C50.6659 81.0955 49.588 79.8614 47.2604 79.8614C44.9329 79.8614 43.855 81.1111 43.855 83.9229ZM48.8382 83.9229C48.8382 85.5475 48.557 86.3754 47.2604 86.3754C45.9639 86.3754 45.6983 85.5475 45.6983 83.9229C45.6983 82.3139 45.9639 81.486 47.2604 81.486C48.557 81.5016 48.8382 82.3139 48.8382 83.9229ZM53.1028 87.8751H54.8836V81.6266H57.0237V79.9864H50.9627V81.6266H53.1028V87.8751ZM57.3205 83.9229C57.3205 86.7504 58.3983 87.9844 60.7259 87.9844C63.0535 87.9844 64.1313 86.7504 64.1313 83.9229C64.1313 81.0955 63.0535 79.8614 60.7259 79.8614C58.3983 79.8614 57.3205 81.1111 57.3205 83.9229ZM62.288 83.9229C62.288 85.5475 62.0068 86.3754 60.7103 86.3754C59.4137 86.3754 59.1482 85.5475 59.1482 83.9229C59.1482 82.3139 59.4137 81.486 60.7103 81.486C62.0068 81.5016 62.288 82.3139 62.288 83.9229ZM65.3498 87.8907H67.1306V85.0476H67.9116L69.5831 87.8907H71.6451L69.7081 84.7821C70.7235 84.5322 71.3327 83.7355 71.3327 82.517C71.3327 80.6112 70.2548 79.9708 68.5521 79.9708H65.3498V87.8907V87.8907ZM67.1306 83.5168V81.5016H68.4584C69.2551 81.5016 69.505 81.9078 69.505 82.517C69.505 83.1106 69.2551 83.5168 68.4584 83.5168H67.1306ZM72.3949 87.7814C73.1291 87.9063 73.9102 88.0001 74.7381 88.0001C76.8626 88.0001 77.8311 87.2659 77.8311 85.6881C77.8311 84.1885 76.7689 83.7042 75.4567 83.1106C74.5819 82.7201 74.0039 82.5014 74.0039 82.0484C74.0039 81.611 74.2226 81.5016 75.2848 81.5016C76.1909 81.5016 77.0032 81.611 77.4406 81.6579V80.002C76.9876 79.9551 76.2534 79.8614 75.238 79.8614C73.2541 79.8614 72.2543 80.4238 72.2543 82.0796C72.2543 83.4074 73.176 83.9229 74.4257 84.4853C75.7066 85.0789 76.0971 85.157 76.0971 85.735C76.0971 86.2349 75.6285 86.3598 74.7225 86.3598C73.629 86.3598 72.7386 86.2036 72.3793 86.1411V87.7814" fill="black"/>
<path d="M48.1509 37.1218L55.7271 50.2436L63.3034 37.1218L55.7271 24L48.1509 37.1218Z" fill="#D61719"/>
<path d="M70.8797 50.2436L55.7271 50.2436L63.3034 63.3654H78.456L70.8797 50.2436Z" fill="#D61719"/>
<path d="M40.5746 50.2436L55.7271 50.2436L48.1508 63.3654H32.9983L40.5746 50.2436Z" fill="#D61719"/>
</g>
<defs>
<clipPath id="clip0_2929_25165">
<rect width="59.6885" height="64" fill="white" transform="translate(26 24)"/>
</clipPath>
</defs>
</svg>
