<svg width="112" height="112" viewBox="0 0 112 112" fill="none" xmlns="http://www.w3.org/2000/svg">
<path d="M35.8599 59.3294V52.6478H34.3811V57.6334L29.4554 52.6478H27.5557V59.3294H29.0345V54.3211L33.9943 59.3294H35.8599Z" fill="black"/>
<path d="M40.6036 52.6478H39.1247V59.3294H40.6036V52.6478Z" fill="black"/>
<path d="M49.8406 57.918C49.7951 57.9293 49.6131 57.9293 49.5448 57.9293H43.6636V59.2952H49.6358C49.6813 59.2952 50.034 59.2952 50.1022 59.2839C51.3194 59.17 51.8768 58.157 51.8768 57.2691C51.8768 56.3585 51.2967 55.3797 50.1932 55.2772C49.9771 55.2544 49.7951 55.2544 49.7155 55.2544H45.8136C45.643 55.2544 45.4496 55.2431 45.3813 55.2203C45.0742 55.1406 44.9604 54.8674 44.9604 54.6398C44.9604 54.4349 45.0742 54.1617 45.3927 54.0707C45.4837 54.0479 45.5861 54.0365 45.8022 54.0365H51.4332V52.6934H45.7112C45.4723 52.6934 45.2903 52.7048 45.1424 52.7275C44.1641 52.8641 43.4816 53.6495 43.4816 54.6512C43.4816 55.4707 43.9935 56.4268 45.1197 56.5862C45.3244 56.609 45.6088 56.609 45.734 56.609H49.5334C49.6017 56.609 49.7723 56.609 49.8065 56.6203C50.2387 56.6773 50.3866 56.996 50.3866 57.2805C50.3866 57.5537 50.2274 57.8497 49.8406 57.918Z" fill="black"/>
<path d="M60.966 57.918C60.9205 57.9293 60.7384 57.9293 60.6588 57.9293H54.789V59.2952H60.7612C60.8067 59.2952 61.1593 59.2952 61.2276 59.2839C62.4448 59.17 63.0022 58.157 63.0022 57.2692C63.0022 56.3586 62.422 55.3797 61.3186 55.2772C61.1025 55.2545 60.9205 55.2545 60.8408 55.2545H56.939C56.7683 55.2545 56.575 55.2431 56.5067 55.2203C56.1996 55.1406 56.0858 54.8674 56.0858 54.6398C56.0858 54.4349 56.1996 54.1617 56.5181 54.0707C56.6091 54.0479 56.7115 54.0365 56.9276 54.0365H62.5586V52.6934H56.8366C56.5977 52.6934 56.4157 52.7048 56.2678 52.7275C55.2895 52.8641 54.607 53.6495 54.607 54.6512C54.607 55.4707 55.1189 56.4268 56.2451 56.5862C56.4498 56.609 56.7342 56.609 56.8593 56.609H60.6588C60.7271 56.609 60.8977 56.609 60.9318 56.6204C61.3641 56.6773 61.512 56.996 61.512 57.2805C61.512 57.5537 61.3414 57.8497 60.966 57.918Z" fill="black"/>
<path d="M68.8948 52.6478L64.7313 59.3294H66.5287L67.2681 58.1342H72.1255L72.8649 59.3294H74.6509L70.4874 52.6478H68.8948ZM71.3633 56.8708H68.0302L69.7025 54.1845L71.3633 56.8708Z" fill="black"/>
<path d="M83.4215 52.6479V57.6334L78.4959 52.6479H76.5961V59.3294H78.075V54.3211L83.0234 59.3294H84.889V52.6479H83.4215Z" fill="black"/>
<path d="M35.7803 48.8575C38.7607 40.1499 46.9739 34.2993 56.2337 34.2993C65.4935 34.2993 73.7181 40.1499 76.6871 48.8575L76.7099 48.9258H83.2281V48.1404L80.5207 47.8217C78.8485 47.6282 78.4959 46.8883 78.0408 45.9549L77.9271 45.7273C74.0139 37.3953 65.4935 32 56.2337 32C46.9625 32 38.4535 37.3953 34.5403 45.7501L34.4266 45.9777C33.9715 46.9111 33.6189 47.6509 31.9467 47.8444L29.2393 48.1631V48.9485H35.7461L35.7803 48.8575Z" fill="black"/>
<path d="M76.7099 63.0628L76.6871 63.1311C73.7067 71.8387 65.4935 77.678 56.2337 77.678C46.9739 77.678 38.7493 71.8274 35.7803 63.1198L35.7575 63.0515H29.2506V63.8369L31.958 64.1556C33.6303 64.3491 33.9829 65.0889 34.4379 66.0223L34.5517 66.2499C38.4649 74.6047 46.9853 80 56.2451 80C65.5049 80 74.0252 74.6047 77.9385 66.2613L78.0522 66.0337C78.5072 65.1003 78.8599 64.3604 80.5321 64.1669L83.2395 63.8482V63.0628H76.7099Z" fill="black"/>
</svg>
