<svg width="112" height="112" viewBox="0 0 112 112" fill="none" xmlns="http://www.w3.org/2000/svg">
<path fill-rule="evenodd" clip-rule="evenodd" d="M51.2135 37.5226C50.231 37.8546 49.596 37.9831 49.5542 37.8581C49.4551 37.5609 47.6314 37.985 46.2307 38.6309C45.5926 38.9252 44.7167 39.1755 44.2841 39.1869C42.5762 39.2327 38.993 41.9942 38.0056 44.0261C37.4182 45.2348 37.3716 46.9777 37.8999 47.9855C39.4414 50.9259 42.2136 52.3563 49.3125 53.8742C51.1139 54.2593 52.6701 54.6253 52.7708 54.6873C52.8714 54.7495 52.5941 55.1321 52.1544 55.5377C51.7147 55.9433 51.3548 56.4128 51.3548 56.5813C51.3548 56.9666 52.2093 57.8357 52.5881 57.8357C52.7443 57.8357 53.2595 58.131 53.7328 58.492C54.9769 59.4405 55.2896 59.574 56.2661 59.574C56.9539 59.574 57.2789 59.455 57.7774 59.0206C58.1268 58.7162 58.8041 58.2714 59.2827 58.0323C61.0974 57.1255 61.2912 56.4862 60.0527 55.4919C59.6254 55.1489 59.3425 54.8063 59.4243 54.7304C59.5059 54.6547 60.6604 54.3634 61.9898 54.0835C65.9431 53.2507 68.7639 52.4453 70.3 51.7106C71.9743 50.9098 73.7784 49.2401 74.3654 47.948C75.2572 45.9851 74.5362 43.6858 72.413 41.7223C70.9069 40.3296 68.6713 39.0629 67.8978 39.164C67.5469 39.2097 66.8784 39.0297 66.1575 38.6954C64.5298 37.9404 63.2155 37.613 62.8178 37.8637C62.5854 38.0101 62.2168 37.9504 61.424 37.6379C60.121 37.1242 58.896 36.8858 58.896 37.146C58.896 37.249 59.5267 37.7505 60.2979 38.2606C62.4664 39.6955 64.3061 41.6418 65.1987 43.4455C65.8443 44.7504 65.9537 45.1552 65.9537 46.2372C65.9537 49.5314 63.6856 51.8775 59.6778 52.729C57.2741 53.2399 56.9624 53.3695 56.9624 53.8589C56.9624 54.1359 57.248 54.5237 57.7465 54.9239C58.4377 55.4788 58.5236 55.6362 58.4716 56.2537C58.2832 58.491 53.6752 58.3329 53.6752 56.0891C53.6752 55.8353 54.0385 55.3353 54.5937 54.8254C55.3634 54.1183 55.4777 53.9267 55.2994 53.6418C55.1825 53.4551 54.7474 53.2289 54.3326 53.1395C50.3934 52.2895 49.0846 51.7143 47.7722 50.2565C44.7231 46.8689 46.281 42.2351 51.7578 38.4018C53.977 36.8486 53.844 36.6334 51.2135 37.5226ZM67.5006 40.7085C70.0376 42.6297 71.1264 45.0515 70.4883 47.3533C70.1515 48.569 68.3696 50.36 66.6305 51.2312C65.9392 51.5775 65.5372 51.7494 65.7372 51.6133C68.3439 49.8375 69.3432 48.7343 69.8407 47.0829C70.5264 44.8074 68.8155 41.895 65.5456 39.7716C64.8957 39.3498 64.1996 38.8953 63.9987 38.7618C63.7977 38.6284 64.2425 38.814 64.9869 39.1746C65.7316 39.535 66.8627 40.2253 67.5006 40.7085ZM46.8839 39.6512C45.105 40.8192 43.3728 42.627 42.7477 43.968C41.5568 46.5234 42.646 49.0584 45.8133 51.1032C47.243 52.0262 47.0552 52.0729 45.4758 51.1874C43.8903 50.2982 42.7585 49.2958 42.1289 48.2225C41.3968 46.9748 41.4017 45.2481 42.1417 43.7043C42.8039 42.3224 44.6716 40.5474 46.5693 39.4963C48.471 38.4428 48.616 38.5142 46.8839 39.6512ZM42.5526 40.8821C38.3651 44.2696 38.3253 48.0906 42.4497 50.7208C43.5695 51.4348 43.2247 51.4263 41.9729 50.7092C40.834 50.0565 39.452 48.6234 39.0616 47.6904C38.9102 47.3284 38.7882 46.5731 38.7905 46.012C38.798 44.2204 39.7786 42.6938 41.9497 41.0946C43.2744 40.1187 43.6673 39.9802 42.5526 40.8821ZM71.593 42.2797C72.7456 43.4279 73.0316 43.8428 73.2957 44.75C73.975 47.0841 72.7421 49.3867 70.0817 50.7519C69.513 51.0437 69.2138 51.1708 69.4171 51.0342C73.6341 48.2008 74.0179 45.0088 70.545 41.6514C69.8278 40.958 69.4584 40.5051 69.7243 40.6452C69.9902 40.7852 70.8311 41.5207 71.593 42.2797ZM29.4081 66.1271C28.4889 66.3486 27.9658 66.698 27.5615 67.3603C26.6637 68.8311 27.2813 70.0457 29.4911 71.1555C31.278 72.053 31.627 72.4778 31.0243 73.0213C30.5677 73.433 28.72 73.5012 28.0291 73.1319C27.6816 72.9461 27.5948 73.0014 27.3167 73.5839L27 74.2473L27.5956 74.555C27.9887 74.758 28.6941 74.8625 29.6698 74.8619C31.9228 74.8607 32.8272 74.3978 33.1876 73.061C33.4765 71.9897 33.0496 71.2086 31.7212 70.3775C31.1378 70.0125 30.3792 69.537 30.0356 69.3209C29.2946 68.8546 29.168 68.4361 29.629 67.9758C29.896 67.7091 30.1677 67.6627 30.9438 67.7522C31.4818 67.8142 32.0969 67.9161 32.3105 67.9789C32.6156 68.0685 32.7477 67.9648 32.9243 67.498C33.1259 66.9642 33.1047 66.8738 32.7176 66.6204C32.3486 66.3789 30.4649 65.9079 30.107 65.9674C30.0416 65.9784 29.7272 66.0502 29.4081 66.1271ZM57.7358 66.5253C57.7358 66.6306 58.4165 67.8256 59.2483 69.181L60.7606 71.6453L59.9286 73.1905C59.4711 74.0403 59.095 74.8057 59.093 74.8915C59.0909 74.9774 59.4486 75.0209 59.8879 74.988L60.6863 74.9287L63.0784 70.7816C64.3939 68.5008 65.4703 66.5622 65.4703 66.4736C65.4703 66.3851 65.0616 66.3393 64.5619 66.3716L63.6533 66.4305L62.743 67.9478C62.2423 68.7824 61.7582 69.5397 61.6671 69.6307C61.5752 69.7224 61.0332 69.0257 60.4493 68.0651L59.397 66.3339H58.5665C58.1096 66.3339 57.7358 66.4201 57.7358 66.5253ZM34.2196 67.9917C33.2253 68.4817 32.8589 69.8478 33.4831 70.7379C33.6505 70.9767 34.3901 71.4752 35.1267 71.8456C36.1163 72.3435 36.4659 72.6207 36.4659 72.9079C36.4659 73.5945 34.9538 73.852 33.7136 73.3766C33.5467 73.3127 33.3526 73.4659 33.2131 73.7714C32.9157 74.4235 32.8947 74.3765 33.5943 74.6201C34.9074 75.0773 36.8023 74.8296 37.5267 74.1061C38.0412 73.5922 38.1429 73.6488 37.8127 74.2655C37.6301 74.606 37.6812 74.639 38.39 74.639C39.096 74.639 39.1939 74.5766 39.4506 73.963L39.7333 73.287H41.351H42.9687L43.2914 73.963L43.6141 74.639H44.9644H46.3146L46.3694 72.4662L46.4241 70.2933L47.9524 72.5627L49.481 74.8322H50.3211H51.1615V71.3556V67.8791H50.4847H49.8079V70.0422C49.8079 71.6585 49.7522 72.1498 49.5881 71.9858C49.467 71.8649 48.8274 70.9133 48.1665 69.8709L46.9649 67.9756L45.9741 67.9175L44.9833 67.8592L44.9302 71.1043L44.8772 74.3493L43.6203 71.119L42.3635 67.8889L41.276 67.8839L40.1885 67.8791L39.149 70.6313C38.3164 72.836 38.0979 73.264 38.0509 72.7822C37.9826 72.0828 37.3596 71.4361 35.9825 70.6354C35.2419 70.2047 35.0157 69.9633 35.0157 69.6038C35.0157 69.1523 35.0646 69.1351 36.3052 69.149C37.4604 69.1621 37.6154 69.1185 37.7922 68.731C37.9664 68.3488 37.914 68.2625 37.3436 67.9921C36.5272 67.6052 35.0043 67.605 34.2196 67.9917ZM54.2097 67.8783C52.6125 68.3586 51.5482 69.7299 51.5482 71.3075C51.5482 72.791 52.1646 73.7614 53.5785 74.5028C54.457 74.9635 56.8462 75.061 57.7842 74.6746C58.297 74.4633 58.3159 74.4042 58.3159 73.018C58.3159 70.9361 58.3445 70.9693 56.555 70.9693C55.0558 70.9693 55.0287 70.9778 55.0287 71.4522C55.0287 71.8966 55.0989 71.935 55.9099 71.935H56.7912L56.7317 72.7559L56.6723 73.5767L55.6651 73.6349C54.747 73.6878 54.5929 73.6335 53.9248 73.022C53.2633 72.4163 53.1918 72.2566 53.1918 71.3832C53.1918 70.5825 53.2869 70.3161 53.7423 69.8414C54.4705 69.0821 55.6498 68.7893 56.9711 69.0397C57.527 69.1449 58.0137 69.2311 58.0522 69.2311C58.0908 69.2311 58.1225 68.9744 58.1225 68.6607C58.1225 68.1661 58.0262 68.0637 57.3974 67.8893C56.5536 67.6552 54.9696 67.6496 54.2097 67.8783ZM65.7604 68.1514C64.5142 68.7876 63.8826 69.7126 63.7703 71.0665C63.546 73.7695 66.1231 75.7138 68.6517 74.7493C70.9123 73.8869 71.7123 71.203 70.2924 69.2452C69.2102 67.7527 67.398 67.3155 65.7604 68.1514ZM80.4859 67.9677C78.4904 68.6783 77.4811 71.0516 78.4052 72.8602C78.6065 73.2542 78.9329 73.7183 79.1303 73.8914C80.2802 74.8998 82.2044 75.2468 83.905 74.7532L85 74.4351V73.1976C85 72.517 84.9151 71.7373 84.8115 71.4647C84.632 70.9935 84.5518 70.9693 83.1679 70.9693C81.7447 70.9693 81.7128 70.9799 81.7128 71.4522C81.7128 71.8879 81.7894 71.935 82.4973 71.935H83.282L83.2224 72.7559L83.1631 73.5767L82.1852 73.6339C81.4216 73.6783 81.0923 73.6005 80.6828 73.2787C78.7026 71.723 79.7438 69.0593 82.3618 68.9836C82.8024 68.9709 83.4894 69.0254 83.8882 69.1045C84.5968 69.2453 84.6133 69.2355 84.6133 68.6694C84.6133 68.1647 84.5201 68.0645 83.8882 67.8893C82.896 67.6141 81.3808 67.649 80.4859 67.9677ZM71.4646 71.259V74.639H72.238H73.0115V72.4743V70.3096L74.5101 72.5226L76.0086 74.7356H76.8788H77.7489L77.8017 71.3073L77.8545 67.8791H77.0766H76.2987V70.0463V72.2133L74.8968 70.0467L73.4949 67.8802L72.4797 67.8796L71.4646 67.8791V71.259ZM68.8735 69.8877C69.3952 70.4088 69.531 70.6991 69.531 71.2932C69.531 72.9479 68.0086 74.0115 66.5261 73.3929C65.8041 73.0916 65.0855 72.0953 65.0844 71.3942C65.0834 70.7934 65.567 69.9001 66.0924 69.5325C66.3293 69.3666 66.9041 69.2311 67.3697 69.2311C68.0744 69.2311 68.3261 69.3409 68.8735 69.8877ZM41.7834 70.7221C41.9961 71.2227 42.1991 71.7006 42.2345 71.7838C42.2701 71.8669 41.8495 71.935 41.3 71.935C40.7504 71.935 40.3299 71.8694 40.3654 71.7892C40.4008 71.7091 40.594 71.231 40.7945 70.7269C40.995 70.2228 41.2126 69.8109 41.2779 69.8112C41.3433 69.8116 41.5707 70.2215 41.7834 70.7221Z" fill="#003876"/>
</svg>
