<svg width="112" height="112" viewBox="0 0 112 112" fill="none" xmlns="http://www.w3.org/2000/svg">
<path fill-rule="evenodd" clip-rule="evenodd" d="M54.2341 27.0258C54.0201 27.0468 53.3634 27.1121 52.7749 27.1709C46.6037 27.7873 40.4646 30.6447 35.8657 35.0411C31.7139 39.0103 28.7696 44.2918 27.5922 49.883C27.097 52.2347 27.0032 53.2046 27.0001 56.008C26.9977 58.2813 27.028 58.8374 27.2257 60.1425C28.1803 66.442 30.8565 71.8669 35.2089 76.3248C39.6996 80.9245 45.3021 83.7542 51.9467 84.7791C53.5544 85.027 57.6735 85.0783 59.3416 84.8712C62.9254 84.4261 66.1205 83.4426 69.321 81.7993C76.1091 78.3141 81.2353 72.268 83.6001 64.9579C84.0732 63.4955 84.3107 62.5121 84.5927 60.8475C85.9245 52.9859 83.9567 44.8816 79.1777 38.5458C74.4268 32.2474 67.4886 28.2325 59.5848 27.2082C58.4641 27.0629 55.0433 26.9463 54.2341 27.0258ZM59.5361 29.8412C61.5607 30.15 64.4976 30.9338 64.4976 31.1654C64.4976 31.309 56.3347 49.6845 56.1761 49.8978C56.0732 50.0362 56.0084 50.0511 55.8721 49.9676C55.7277 49.8791 47.3267 31.1644 47.401 31.0965C47.4137 31.0848 47.9255 30.9171 48.5381 30.7236C49.9465 30.279 51.6533 29.9208 53.2126 29.7424C54.741 29.5676 58.0843 29.6198 59.5361 29.8412ZM48.1923 43.8002C50.862 49.7384 53.1123 54.6518 53.1931 54.7188C53.3027 54.8097 54.0121 54.8406 55.9975 54.8406C58.5282 54.8406 58.6641 54.8312 58.8415 54.646C58.9441 54.539 61.1818 49.6579 63.8144 43.7991C66.447 37.9402 68.6346 33.1113 68.6757 33.0681C68.8159 32.9208 70.9135 34.2834 72.4499 35.5197C74.2664 36.9815 76.3899 39.2595 77.6109 41.0564L78.1601 41.8644L71.4018 55.3863C67.6848 62.8235 64.5722 68.9737 64.4849 69.0536C64.1858 69.3276 64.4698 69.9103 60.5309 60.9434C59.6315 58.896 58.8213 57.1339 58.7304 57.0278C58.5731 56.8442 58.4373 56.8349 55.9105 56.8349C53.762 56.8349 53.218 56.8615 53.0567 56.9745C52.9276 57.0648 51.9693 59.2091 50.3354 63.0637C48.8706 66.5193 47.7448 69.0503 47.6496 69.1015C47.5247 69.1687 47.4428 69.1263 47.3031 68.9221C47.2026 68.775 44.1335 62.6249 40.4829 55.2552L33.8455 41.8559L34.3299 41.1379C35.9306 38.7659 38.6186 36.0678 41.1096 34.3327C41.8716 33.802 43.1857 32.9993 43.2881 33.0021C43.3157 33.0029 45.5226 37.862 48.1923 43.8002ZM43.2956 70.8224C46.8398 77.9646 46.9912 78.2489 47.3229 78.3874C47.6217 78.5122 47.711 78.5131 47.9959 78.3942C48.404 78.2236 48.0628 78.9328 52.2802 69.4908C54.1778 65.2423 55.7988 61.6979 55.8821 61.6144C56.0155 61.4811 56.0512 61.48 56.1766 61.6055C56.2551 61.684 57.9358 65.3645 59.9114 69.7844C61.887 74.2043 63.5555 77.9181 63.6193 78.037C63.6829 78.156 63.8848 78.3159 64.0676 78.3924C64.3557 78.5127 64.4449 78.5128 64.7321 78.3928C65.085 78.2453 65.7879 76.8598 77.6055 53.0165C79.296 49.6055 80.6955 46.8311 80.7154 46.851C80.8046 46.9401 81.3654 48.7167 81.6253 49.7333C82.1646 51.842 82.3339 53.3142 82.3357 55.9107C82.3371 57.8473 82.3004 58.4836 82.1207 59.642C80.8788 67.6499 76.2512 74.5482 69.3564 78.6693C62.9122 82.521 55.1736 83.4195 48.0566 81.142C39.7015 78.4683 33.1173 71.6839 30.6885 63.2456C29.2097 58.1079 29.3589 52.3728 31.098 47.5026L31.3561 46.7798L35.4845 55.0906C37.7551 59.6615 41.2701 66.7409 43.2956 70.8224Z" fill="#001E50"/>
</svg>
