<svg width="112" height="112" viewBox="0 0 112 112" fill="none" xmlns="http://www.w3.org/2000/svg">
<g clip-path="url(#clip0_2929_25188)">
<path d="M27.9836 54.7453L29.9813 58.3741H32.2905L34.2515 54.7453H35.2351V54.0916H32.2783V54.7453H33.1336L31.704 57.3906L30.2562 54.7453H31.2947V54.0916H27V54.7453H27.9836Z" fill="black"/>
<path d="M53.4158 54.7453V54.0916H57.3746V54.7453H56.3849V57.7082H57.3012C58.1504 57.7082 58.7002 57.1523 58.7002 56.3887H59.3539V58.3741H53.4097V57.7082H54.4055V54.7453H53.4158Z" fill="black"/>
<path d="M43.8184 54C41.8329 54 40.7761 54.9897 40.7761 56.2359C40.7761 57.4944 41.7902 58.5024 43.8306 58.5024C45.8711 58.5024 46.873 57.4944 46.873 56.2359C46.873 54.9897 45.8039 54 43.8184 54ZM43.8001 57.8243C43.0731 57.8121 42.7554 57.0057 42.7676 56.2115C42.7799 55.3868 43.177 54.6659 43.8551 54.6781C44.5332 54.6903 44.8936 55.4234 44.8814 56.2482C44.8631 57.024 44.5454 57.8365 43.8001 57.8243Z" fill="black"/>
<path d="M66.1106 54.7453L68.1022 58.3741H70.4175L72.3786 54.7453H73.3621V54.0916H70.4053V54.7453H71.2606L69.8311 57.3906L68.3832 54.7453H69.4217V54.0916H65.127V54.7453H66.1106Z" fill="black"/>
<path d="M81.9454 54C79.96 54 78.9031 54.9897 78.9031 56.2359C78.9031 57.4944 79.9172 58.5024 81.9577 58.5024C83.9981 58.5024 85 57.4944 85 56.2359C85 54.9897 83.937 54 81.9454 54ZM81.921 57.8243C81.194 57.8121 80.8763 57.0057 80.8886 56.2115C80.9008 55.3868 81.2979 54.6659 81.976 54.6781C82.6541 54.6903 83.0145 55.4234 83.0023 56.2482C82.9901 57.024 82.6724 57.8365 81.921 57.8243Z" fill="black"/>
</g>
<defs>
<clipPath id="clip0_2929_25188">
<rect width="58" height="4.50242" fill="white" transform="translate(27 54)"/>
</clipPath>
</defs>
</svg>
